<?xml version="1.0" standalone="no"?>
<!DOCTYPE svg PUBLIC "-//W3C//DTD SVG 20010904//EN"
 "http://www.w3.org/TR/2001/REC-SVG-20010904/DTD/svg10.dtd">
<svg version="1.0" xmlns="http://www.w3.org/2000/svg"
 width="300.000000pt" height="300.000000pt" viewBox="0 0 300.000000 300.000000"
 preserveAspectRatio="xMidYMid meet">

<g transform="translate(0.000000,300.000000) scale(0.100000,-0.100000)"
fill="#000000" stroke="none">
<path d="M1345 2990 c-245 -26 -469 -108 -680 -247 -135 -90 -318 -273 -408
-408 -339 -514 -339 -1157 0 -1669 88 -133 273 -318 403 -405 228 -151 459
-231 728 -251 238 -18 485 22 701 115 586 250 950 851 901 1487 -28 371 -170
678 -435 944 -221 222 -471 355 -771 414 -118 22 -326 32 -439 20z m383 -115
c303 -53 554 -185 769 -403 195 -198 331 -469 378 -751 21 -125 16 -383 -10
-501 -121 -549 -535 -964 -1085 -1085 -118 -26 -375 -31 -501 -10 -576 95
-1022 523 -1146 1098 -14 65 -18 127 -17 292 0 201 2 215 31 325 145 543 567
935 1118 1035 98 18 361 18 463 0z"/>
<path d="M646 2315 c-107 -38 -164 -168 -121 -273 20 -47 50 -78 100 -105 37
-20 54 -22 235 -22 194 0 195 0 241 27 26 15 73 57 105 93 69 76 103 89 147
55 52 -41 48 -50 -234 -556 -154 -277 -263 -484 -266 -505 -8 -52 30 -94 85
-94 22 0 47 7 56 14 9 8 79 91 156 186 77 95 147 178 156 185 8 8 42 17 74 21
70 8 113 35 140 89 25 50 25 110 0 160 -39 77 -15 148 56 166 65 17 74 5 402
-536 332 -546 341 -558 412 -545 45 8 89 52 96 95 4 28 -40 163 -226 685 -127
358 -242 673 -256 702 -33 69 -111 138 -177 158 -72 21 -1121 22 -1181 0z"/>
</g>
</svg>
