<?xml version="1.0" standalone="no"?>
<!DOCTYPE svg PUBLIC "-//W3C//DTD SVG 20010904//EN"
 "http://www.w3.org/TR/2001/REC-SVG-20010904/DTD/svg10.dtd">
<svg version="1.0" xmlns="http://www.w3.org/2000/svg"
 width="560.000000pt" height="560.000000pt" viewBox="0 0 560.000000 560.000000"
 preserveAspectRatio="xMidYMid meet">

<g transform="translate(0.000000,560.000000) scale(0.100000,-0.100000)"
fill="#000000" stroke="none">
<path d="M2624 5220 c-856 -67 -1605 -565 -1987 -1325 -181 -359 -260 -695
-259 -1100 1 -1057 668 -1970 1681 -2304 404 -133 910 -149 1337 -41 425 107
794 319 1115 639 382 381 611 837 689 1370 28 194 28 486 1 677 -106 722 -508
1341 -1118 1722 -426 266 -965 400 -1459 362z m292 -300 c174 -14 257 -26 399
-61 538 -130 1023 -489 1313 -970 147 -246 239 -509 282 -810 53 -368 -3 -776
-156 -1129 -118 -272 -321 -552 -542 -745 -102 -90 -301 -229 -414 -288 -191
-102 -412 -176 -650 -219 -102 -19 -160 -22 -343 -22 -235 0 -322 10 -520 60
-946 238 -1610 1093 -1607 2068 2 332 68 616 217 921 118 242 239 409 436 601
372 360 840 562 1384 597 28 2 55 4 61 5 6 1 69 -3 140 -8z"/>
<path d="M1370 4036 c-175 -37 -270 -157 -258 -325 9 -125 76 -218 186 -263
55 -22 70 -23 378 -26 410 -4 389 -10 552 159 149 153 212 181 272 120 36 -36
46 -72 31 -120 -14 -47 -55 -122 -565 -1038 -280 -503 -287 -520 -249 -593 20
-38 84 -80 122 -80 54 0 110 40 189 137 42 53 130 161 195 242 66 80 139 167
164 193 57 60 132 98 193 98 166 0 225 103 194 338 -20 157 -20 201 0 240 21
40 83 72 141 72 70 0 110 -33 188 -155 486 -758 926 -1428 961 -1462 52 -50
104 -67 161 -52 96 26 142 100 132 212 -4 50 -56 194 -262 727 -141 366 -320
829 -397 1030 -77 201 -147 377 -154 392 -17 33 -80 95 -114 113 -96 49 -59
47 -1065 50 -694 2 -954 0 -995 -9z"/>
</g>
</svg>
